<svg xmlns="http://www.w3.org/2000/svg" viewBox="0 0 85.12 61.21"><defs><style>.cls-1,.cls-2{fill:#156be0;}.cls-1{stroke:#1c83f4;stroke-miterlimit:10;stroke-width:0.15px;}.cls-2{font-size:12px;font-family:Montserrat-Bold, Montserrat;font-weight:700;}</style></defs><title>Fichier 2Logo</title><g id="Calque_2" data-name="Calque 2"><g id="Calque_1-2" data-name="Calque 1"><path class="cls-1" d="M85,44l-.9-37.76L83.24,43.4l-1.81.22c-.84.07-1.68.16-2.53.22l-1.26.06c-.42,0-.84.05-1.27.05-.84,0-1.69,0-2.53,0l-1.27,0-1.26-.07-.63,0-.63-.05-1.26-.1c-.84-.09-1.68-.17-2.51-.29s-1.68-.22-2.51-.35l-2.52-.4L60,42.45l-1.28-.2c-.86-.13-1.74-.25-2.62-.35l-.68-.06-.33,0-.17,0h-.2l-.65,0-.32,0h-.34l-.71,0H52l-.69,0h-.35l-.35,0-.69,0-.69.07c-.44,0-.88.11-1.31.17.58-.19,1.16-.36,1.76-.52.36-.09.73-.2,1.09-.27l.55-.13.58-.11.29,0h.13l.14,0,.56-.09.57-.06.57-.06c.76-.05,1.54-.08,2.31-.08H57l.58,0,1.17,0,1.18.06,1.18.09L63.5,41c.79.06,1.59.11,2.39.15l1.21,0h1.2a21.72,21.72,0,0,0,2.43-.13l.61-.06.59-.08c.4-.05.8-.12,1.19-.18s.78-.15,1.17-.22l1.16-.25c.77-.17,1.54-.36,2.29-.57s1.49-.43,2.24-.69l.26-.08v-.22L80,.25V.1l-.2,0L78.21.49c-.26.06-.51.13-.77.18l-.78.14L75.88,1,75.49,1l-.4.06-1.58.24-.79.1-.8.09-.79.1-.8.07-1.6.14-1.61.11-.8,0-.81,0-.8,0-.81,0c-.53,0-1.07,0-1.61,0H59.07l-1.62,0-.8,0-.81,0-1.61-.09,1.61.1.81,0,.8,0,1.61,0,1.62,0h1.61l1.62,0h.8l.81,0,.81,0,.8,0L68.74,2l1.61-.13.8-.07.8-.08.8-.09.8-.1,1.59-.22c.14,0,.27,0,.4-.06l.39-.07L76.72,1l.79-.14c.26,0,.52-.11.78-.16L79.65.4l-.29,38.12c-.63.21-1.28.39-1.93.57s-1.49.38-2.24.54l-1.13.23-1.15.2-1.14.17-.58.07-.58.05a22.32,22.32,0,0,1-2.31.11h-.58l-.6,0L66,40.37c-.78,0-1.57-.1-2.35-.17L61.24,40l-1.19-.09-1.19-.08c-.41,0-.8,0-1.21-.06l-.6,0h-.61c-.81,0-1.62,0-2.44.07l-.61,0c-.2,0-.41,0-.61.07l-.61.08L52,40h-.09l-.07,0-.29,0-.58.1-.59.13c-.41.08-.78.18-1.17.28-.77.2-1.53.42-2.27.67s-1.47.51-2.18.81l-.54.22-.52.23-.53.25L42.56,4.16,41.93,42.8l-.52-.25-.53-.23-.53-.22c-.71-.3-1.44-.56-2.19-.81s-1.5-.47-2.26-.67c-.39-.1-.77-.2-1.17-.28l-.6-.13-.58-.1-.29,0-.07,0H33.1L33,40l-.61-.08a6,6,0,0,0-.61-.07l-.61,0c-.81-.05-1.63-.08-2.44-.07h-.6l-.61,0-1.2.06-1.2.08L23.88,40l-2.36.2c-.79.07-1.57.13-2.35.17L18,40.43l-.59,0h-.59a22.46,22.46,0,0,1-2.31-.11l-.57-.05-.58-.07-1.15-.17-1.14-.2-1.13-.23c-.76-.16-1.5-.35-2.25-.54s-1.29-.36-1.92-.56L5.48.4,6.84.7c.26.05.51.12.78.16L8.4,1l.79.14.4.07c.13,0,.26,0,.39.06l1.59.22.8.1.8.09.8.08.8.07L16.38,2,18,2.05l.81,0,.8,0,.81,0h.81l1.61,0h1.62l1.61,0,1.61,0,.81,0,.8,0,1.61-.1L29.28,2l-.8,0-.81,0-1.61,0H22.83l-1.61,0-.8,0-.81,0-.8,0-.81,0-1.6-.11-1.6-.14L14,1.62l-.8-.1-.8-.09-.79-.1L10,1.09,9.64,1,9.25,1,8.47.81,7.68.67C7.42.62,7.17.55,6.91.49L5.37.14,5.18.1V.25l-.3,38.5V39l.26.08c.75.26,1.49.48,2.25.69s1.51.4,2.28.57l1.16.25c.39.07.78.16,1.17.22s.79.13,1.19.18l.6.08.6.06a21.9,21.9,0,0,0,2.44.13H18l1.21,0c.8,0,1.6-.09,2.39-.15L24,40.84l1.18-.09,1.17-.06,1.17,0,.59,0h.58c.78,0,1.55,0,2.32.08l.57.06c.19,0,.38,0,.56.06l.57.09.14,0H33l.29,0,.57.11.55.13c.36.07.73.18,1.1.27.59.16,1.18.33,1.76.52-.44-.06-.88-.13-1.31-.17l-.7-.07-.69,0-.34,0h-.35l-.69,0h-.71l-.71,0h-.34l-.32,0-.65,0h-.2l-.17,0-.34,0-.67.06c-.89.1-1.77.22-2.63.35l-1.28.2-1.27.2-2.52.4c-.84.13-1.68.25-2.51.35s-1.68.2-2.52.29l-1.26.1-.63.05-.63,0-1.26.07-1.27,0c-.84,0-1.68,0-2.53,0-.42,0-.84,0-1.26-.05l-1.27-.06c-.84-.06-1.68-.15-2.53-.22l-1.8-.22L1,6.22.09,44v.56l.73.11,2.59.4c.87.1,1.73.21,2.61.3l1.31.1c.44,0,.88.07,1.32.09.88,0,1.77.09,2.65.08h1.33l1.32,0,.66,0,.66,0,1.32-.07c.88-.07,1.76-.13,2.63-.22s1.74-.19,2.6-.29l2.57-.34,1.28-.16c.42-.06.84-.12,1.26-.16.84-.11,1.67-.19,2.49-.26L30,44l.31,0h.27l.65,0h1.21c.2,0,.39,0,.59,0l.6,0,.3,0,.3,0,.6.05.59.08c.39,0,.78.12,1.16.19a20,20,0,0,1,2.25.55l.54.17.52.19.5.2.23.11.1.05,0,0h3.52l0,0,.11-.05.23-.11.49-.2.52-.19.54-.17a20.52,20.52,0,0,1,2.25-.55c.39-.07.77-.14,1.17-.19l.59-.08.59-.05.3,0,.3,0,.6,0c.21,0,.4,0,.59,0h1.22l.65,0h.27l.31,0,.61,0c.82.07,1.66.15,2.5.26.41,0,.84.1,1.26.16l1.27.16,2.57.34c.87.1,1.73.21,2.6.29s1.75.15,2.63.22l1.32.07.66,0,.66,0,1.33,0h1.33c.88,0,1.76,0,2.64-.08.44,0,.88-.06,1.32-.09l1.32-.1,2.61-.3,2.58-.4.74-.11Z"/><text class="cls-2" transform="translate(1.83 58.01)">MEMORAMA</text></g></g></svg>